<svg width="113" height="24" viewBox="0 0 113 24" fill="none" xmlns="http://www.w3.org/2000/svg">
<g clip-path="url(#clip0_0_883)">
<path d="M80.1829 0.734095V6.21536H84.5827V17.9834H76.445L74.1782 15.4431C74.1782 15.4431 79.3573 13.4306 79.1148 7.55254C78.8476 1.13525 70.3088 0.734095 70.3088 0.734095H29.6168L26.015 8.62229L22.4125 0.599976H2.80086V6.48359H9.07165L4.53523 17.3144H0V23.4655H17.4766V17.5826H14.4082L17.0764 11.6982L20.6785 23.3317H29.2169L33.8864 11.6982L36.4208 17.7152H32.6853V23.4655H61.637V17.8497H57.7668V15.3094H61.9042L70.8432 23.6H97.5241V17.9834H92.7209V15.7102H102.595V9.96108H92.7209V6.21536H105.664V10.8955H113V0.867014L80.1829 0.734095ZM49.228 17.5826H46.1599L41.4909 6.61731H49.228V17.5826ZM68.5756 8.89053H57.7668V6.88315L68.5756 6.75143C68.5756 6.75143 69.6421 6.61731 69.6421 7.68586C69.6421 8.75681 68.5756 8.89053 68.5756 8.89053Z" fill="black"/>
</g>
<defs>
<clipPath id="clip0_0_883">
<rect width="113" height="23" fill="white" transform="translate(0 0.599976)"/>
</clipPath>
</defs>
</svg>
