<svg width="187" height="24" viewBox="0 0 187 24" fill="none" xmlns="http://www.w3.org/2000/svg">
<path d="M94.8207 19.9023C94.1291 19.9023 93.8907 19.6876 94.0179 19.1309L95.2181 14.4142H102.316L103.119 11.3201H96.0208L96.8236 8.17824C97.0382 7.35899 97.6186 6.65903 98.7631 6.65903H104.446L105.249 3.56494H96.9906C93.5649 3.56494 92.5395 4.1774 91.2041 9.33157L88.756 18.757C88.001 21.9227 88.9388 23.2987 91.5221 23.2987H98.6438C100.043 23.2987 100.949 22.551 101.386 21.4056L101.974 19.9023H94.8207Z" fill="black"/>
<path d="M175.975 19.9023C175.283 19.9023 175.044 19.6876 175.171 19.1309L176.371 14.4142H183.47L184.272 11.3201H177.175L177.977 8.17824C178.191 7.35899 178.772 6.65903 179.916 6.65903H185.6L186.402 3.56494H178.152C174.726 3.56494 173.7 4.1774 172.366 9.33157L169.918 18.757C169.163 21.9227 170.101 23.2987 172.684 23.2987H179.805C181.205 23.2987 182.11 22.551 182.548 21.4056L183.136 19.9023H175.975Z" fill="black"/>
<path d="M63.6793 3.56494H56.5813L51.6374 22.7102C51.55 23.0363 51.7408 23.2987 52.0667 23.2987H58.3936C66.342 23.2987 67.6772 21.7795 69.8552 13.3483C71.7389 6.02272 70.5705 3.56494 63.6793 3.56494ZM59.1328 19.9341H57.6782L61.104 6.66699C61.5412 6.66699 61.7081 6.64313 62.8049 6.64313C65.8809 6.64313 65.881 7.66125 64.4105 13.3483C62.9241 19.1069 62.0578 19.9341 59.1328 19.9341Z" fill="black"/>
<path d="M163.025 3.52466C158.932 3.52466 157.032 3.61214 155.92 3.56443L150.968 22.7096C150.881 23.0357 151.072 23.2982 151.398 23.2982H156.143L160.442 6.65852C160.879 6.65852 161.548 6.61875 162.223 6.61875C164.528 6.61875 164.83 7.438 164.227 9.79238L160.887 22.7016C160.801 23.0277 160.991 23.2903 161.316 23.2903H166.063L169.551 9.79238C170.745 5.1234 168.693 3.52466 163.025 3.52466Z" fill="black"/>
<path d="M121.925 3.56494L121.106 6.77039H126.376C126.432 6.77039 126.432 6.83403 126.384 6.87379C125.542 7.51012 125.025 8.41686 124.787 9.35542L121.329 22.7102C121.242 23.0363 121.44 23.2987 121.758 23.2987H126.853L131.137 6.77039H133.745C135.207 6.77039 136.097 6.15793 136.598 4.87735L137.099 3.56494H121.925Z" fill="black"/>
<path d="M48.0445 23.3062L52.9963 4.16097C53.0838 3.83486 52.893 3.57239 52.5672 3.57239H47.5517L42.5998 22.7177C42.5124 23.0436 42.7032 23.3062 43.029 23.3062H48.0445Z" fill="black"/>
<path d="M145.237 3.29346C139.268 3.29346 136.677 4.3593 134.324 13.4348C132.289 21.3012 133.919 23.5761 139.991 23.5761C146.167 23.5761 148.615 22.3034 150.905 13.4348C152.566 7.01592 152.232 3.29346 145.237 3.29346ZM140.858 20.2592C138.585 20.2592 138.243 19.432 139.832 13.2757C141.152 8.15333 142.416 6.37165 144.451 6.37165C146.724 6.37165 146.978 7.59656 145.508 13.2757C144.053 18.9071 142.614 20.2592 140.858 20.2592Z" fill="black"/>
<path d="M3.1043 13.5871L6.19622 2.7458C6.49826 1.63224 7.73027 0.614136 8.97022 0.614136H18.4209C18.5799 0.614136 18.6275 0.820938 18.5083 0.908432C13.5962 4.27296 7.67463 9.26009 3.37455 13.7302C3.26327 13.8416 3.06456 13.7461 3.1043 13.5871Z" fill="black"/>
<path d="M10.5676 20.0935L13.6277 9.39536C13.6754 9.23627 13.5005 9.11697 13.3654 9.22831C8.86661 13.1019 3.43785 18.7572 0.0438832 23.0365C-0.0435492 23.1477 0.00413901 23.3148 0.14721 23.3148H13.3813C18.961 23.3148 22.0132 21.5888 23.1259 17.4526C24.0321 14.0882 22.2676 11.7895 19.4538 11.193C19.4062 11.185 19.3584 11.0896 19.4538 11.0736C21.8384 10.668 24.2387 9.70556 25.0893 6.22968C26.0193 2.46745 23.1419 0.407376 19.8354 0.614179L14.7802 18.3356C14.51 19.298 13.4846 20.1015 12.507 20.1015H10.5676" fill="black"/>
<path d="M39.3252 15.392C39.1504 14.8034 38.9596 14.3739 38.6734 14.0239C38.6336 13.9762 38.6258 13.9205 38.6972 13.8966C40.9626 13.1967 42.4489 11.765 43.0769 9.33902C43.9035 6.12561 41.8845 3.57239 36.7738 3.57239H29.183L24.2311 22.7177C24.1437 23.0436 24.3345 23.3062 24.6605 23.3062H29.4056L33.7057 6.66648C34.1667 6.66648 34.6039 6.64261 35.7007 6.64261C37.5288 6.64261 38.2044 7.77208 37.815 9.29923C37.2984 11.3036 35.7405 12.4331 33.8885 12.4331H33.1891L35.1603 21.9858C35.3907 22.9164 35.8597 23.2982 36.9327 23.2982H41.1692L39.3252 15.392Z" fill="black"/>
<path d="M103.906 16.6164C101.895 21.4205 104.518 23.6 109.851 23.6C114.724 23.6 117.426 22.4387 118.579 17.9606C118.976 16.4335 118.722 14.779 117.776 13.7529C115.956 11.7724 112.451 11.3986 111.219 10.2532C110.591 9.67257 110.599 8.8533 110.781 8.14541C111.115 6.85687 111.982 6.14897 113.389 6.14897C115.59 6.14897 115.646 7.50114 115.105 9.11579H119.827C120.939 5.75921 119.485 3.12646 113.921 3.12646C109.239 3.12646 106.712 4.96382 105.806 8.48742C105.551 9.44986 105.647 11.0327 106.227 12.019C107.515 14.2222 110.917 14.5006 112.8 15.8051C113.619 16.3777 113.643 17.1413 113.428 17.9844C113.007 19.6309 112.18 20.4105 110.535 20.4105C108.953 20.4105 108.007 19.4877 108.913 16.6084H103.906" fill="black"/>
<path d="M82.175 13.4751L80.4025 19.9973C80.0289 20.0291 79.5601 20.0847 78.8367 20.0847C75.3554 20.0847 75.7448 19.0349 77.2152 13.3557C78.7413 7.4539 79.6315 6.37216 81.8014 6.37216C83.8918 6.37216 83.9078 7.78001 83.3752 9.56169H88.6769C89.5353 6.23695 88.9629 3.28601 82.7632 3.28601C75.856 3.28601 73.9802 4.74159 71.7547 13.3557C69.6801 21.3733 70.3637 23.497 77.8273 23.497C81.3643 23.497 82.8506 23.2346 85.0046 22.8448L87.5005 13.4751H82.175Z" fill="black"/>
</svg>
