<svg width="161" height="24" viewBox="0 0 161 24" fill="none" xmlns="http://www.w3.org/2000/svg">
<g clip-path="url(#clip0_0_879)">
<path d="M0 0.611084L11.4637 12.0972L11.5091 12.1351L11.4637 12.1958L0.0756678 23.5909H2.08843L13.5143 12.1351L2.01276 0.618666L0 0.611084ZM9.09527 0.611084L7.07494 0.618666L18.5462 12.0972L18.5765 12.1351L18.5462 12.1958L7.15818 23.5909H9.17851L20.6044 12.1351L9.09527 0.611084ZM10.6238 0.611084L22.0799 12.0972L22.1253 12.1351L22.0799 12.1958L10.707 23.5909H12.7198L24.138 12.1351L12.6365 0.611084H10.6238ZM14.1575 0.611084L25.6211 12.0972L25.659 12.1351L25.6211 12.1958L14.2407 23.5909H16.2535C16.291 23.5554 27.7247 12.0972 27.7247 12.0972L39.1884 0.611084H37.168L26.7107 11.0813L26.6729 11.1268L26.6275 11.0813L25.9541 10.4141L25.9011 10.3686L25.9541 10.3231L35.6471 0.611084H33.6268L24.9023 9.36024L24.8569 9.31475L24.1834 8.64757L24.138 8.5945L32.1059 0.618666H30.0931L23.1846 7.54066L23.1317 7.59373L23.0863 7.54066L22.4128 6.8659L22.3674 6.82799L22.4128 6.7825L28.5797 0.618666L26.5594 0.611084L21.414 5.77415L21.361 5.81206L21.3156 5.76657L20.6422 5.09939L20.5968 5.04632L20.6422 5.00083L25.0234 0.618666H23.0182L19.6358 3.98489L19.598 4.03796L19.5526 3.98489L16.1778 0.618666L14.1575 0.611084ZM3.54126 0.618666L14.9974 12.0972L15.0503 12.1351L14.9974 12.1958L3.63206 23.5909H5.63725L17.0631 12.1351L5.55402 0.618666H3.54126Z" fill="black"/>
<path d="M59.0285 3.33289C54.1449 3.33289 50.1753 7.31625 50.1753 12.2185C50.1753 17.1111 54.1449 21.089 59.0285 21.089C63.9142 21.089 67.8816 17.1111 67.8816 12.2185C67.8816 7.31625 63.9227 3.33289 59.0285 3.33289ZM77.0223 3.33289L71.665 10.7704V3.34047H68.6307V20.7857H71.665V13.5984L76.7575 20.7857H80.5711L74.094 12.2337L80.8284 3.33289H77.0223ZM86.8516 3.33289C81.961 3.33289 77.9908 7.31474 77.9908 12.2033C77.9866 17.1095 81.961 21.089 86.8516 21.089C91.7436 21.089 95.7168 17.1095 95.7123 12.2033C95.7123 7.31474 91.7373 3.33289 86.8516 3.33289ZM38.689 3.48452L44.1749 14.4172V20.9373H47.0427V14.4172L52.5286 3.48452H49.2749L45.6126 11.013L41.9427 3.48452H38.689ZM96.4689 3.48452V20.9373H99.5713V13.8789H105.821V20.9373H108.916V3.48452H105.821V10.8842H99.5713V3.48452H96.4689ZM116.022 3.48452L109.59 20.9373H112.836L114.448 16.4794H120.705L122.294 20.9373H125.556L119.124 3.48452H116.022ZM126.206 3.48452V20.9373H129.309L129.362 9.52705L133.72 20.9373H136.611L140.962 9.52705L141.015 20.9373H144.125V3.48452H143.239H140.954H140.296L135.173 16.866L130.028 3.48452H129.362H127.099H126.206ZM151.457 3.48452L145.025 20.9373H148.286L149.883 16.4794H156.141L157.745 20.9373H160.998L154.574 3.48452H154.234H151.593H151.457ZM86.8591 6.22905C90.1549 6.22905 92.8142 8.90991 92.8142 12.2033C92.8187 15.508 90.1452 18.1852 86.8516 18.1852C83.5621 18.1852 80.8814 15.508 80.8814 12.2033C80.8814 8.90991 83.5652 6.22905 86.8591 6.22905ZM59.0285 6.23664C62.324 6.23664 64.9911 8.91597 64.9911 12.2185C64.9911 15.5095 62.324 18.1928 59.0285 18.1928C55.7415 18.1928 53.0659 15.5095 53.0659 12.2185C53.0659 8.91597 55.7415 6.23664 59.0285 6.23664ZM153.016 8.08654L155.202 14.0305H150.821L153.016 8.08654ZM117.565 8.09413L119.76 14.0305H115.386L117.565 8.09413Z" fill="black"/>
</g>
<defs>
<clipPath id="clip0_0_879">
<rect width="161" height="23" fill="white" transform="translate(0 0.599976)"/>
</clipPath>
</defs>
</svg>
