<svg width="79" height="24" viewBox="0 0 79 24" fill="none" xmlns="http://www.w3.org/2000/svg">
<path d="M6.70887 1.46555C9.48041 0.0770718 12.789 -0.167392 15.7523 0.724518C18.2803 1.44072 20.5244 3.00872 22.1528 5.05037C20.908 6.19629 19.7054 7.38614 18.4529 8.52443C17.1429 7.09966 15.5375 5.8105 13.5831 5.44381C11.5595 5.02173 9.3097 5.47245 7.78104 6.91059C5.16678 9.11458 4.99991 13.4423 7.17878 15.9958C8.68635 17.7166 11.1491 18.4328 13.3778 18.0528C15.4608 17.7797 17.0873 16.3282 18.4932 14.89C19.692 16.1333 20.8984 17.369 22.0933 18.6162C20.3613 20.3064 18.4357 21.947 16.065 22.646C13.771 23.3221 11.2891 23.366 8.95871 22.8504C5.81315 22.159 3.05695 19.9894 1.6146 17.1284C0.260475 14.3514 0.0610006 11.0607 0.914521 8.10807C1.76229 5.18788 3.98336 2.78145 6.70887 1.46555Z" fill="white"/>
<path d="M50.4149 0.573497C52.2121 0.562037 54.0073 0.571587 55.8026 0.567767C58.7257 8.01053 61.7753 15.4036 64.7003 22.8445C62.7631 22.833 60.8278 22.854 58.8925 22.8368C57.0033 18.0889 55.0623 13.3639 53.1615 8.61978C52.7779 9.28632 52.5516 10.0254 52.2485 10.7283C50.6201 14.7676 48.9783 18.7994 47.3595 22.8426C45.4242 22.8445 43.4889 22.8388 41.5555 22.8464C44.4115 15.6271 47.3269 8.42879 50.2154 1.22094C50.2883 1.00704 50.3554 0.791222 50.4149 0.573497Z" fill="white"/>
<path d="M61.3993 5.89063C61.3763 4.11636 61.3916 2.34018 61.3916 0.564C67.2301 0.56973 73.0685 0.57546 78.9089 0.560181C78.9089 2.33636 78.9127 4.11254 78.9051 5.89063C76.8854 5.87726 74.8657 5.88681 72.846 5.8849C72.8077 11.5018 72.8556 17.1207 72.823 22.7395C71.0393 22.7395 69.2555 22.7357 67.4737 22.7433C67.4641 17.1245 67.4641 11.5076 67.4737 5.88872C65.4482 5.88108 63.4247 5.87726 61.3993 5.89063Z" fill="white"/>
<path d="M24.1515 0.544756C29.4855 0.552396 34.8195 0.558126 40.1535 0.542847C40.2053 2.23117 40.1689 3.92141 40.1785 5.61164C34.8253 5.61546 29.4702 5.61355 24.117 5.61355C24.1304 3.92332 24.0767 2.23308 24.1515 0.544756Z" fill="white"/>
<path d="M24.0997 9.11251C29.4568 9.07813 34.8138 9.10487 40.1708 9.10105C40.1747 10.776 40.1939 12.4529 40.167 14.1278C34.833 14.1068 29.497 14.1011 24.163 14.1316C24.0537 12.4605 24.1573 10.7856 24.0997 9.11251Z" fill="white"/>
<path d="M24.1188 17.8082C29.472 17.7566 34.8271 17.7795 40.1803 17.7967C40.1592 19.4889 40.2225 21.1829 40.1439 22.8751C34.8118 22.8579 29.4797 22.8521 24.1476 22.877C24.0804 21.1886 24.1265 19.4984 24.1188 17.8082Z" fill="white"/>
</svg>
