<svg width="79" height="24" viewBox="0 0 79 24" fill="none" xmlns="http://www.w3.org/2000/svg">
<path d="M6.70899 1.86557C9.48053 0.477096 12.7891 0.232633 15.7525 1.12454C18.2804 1.84074 20.5245 3.40875 22.1529 5.4504C20.9081 6.59632 19.7055 7.78617 18.453 8.92445C17.143 7.49969 15.5376 6.21053 13.5832 5.84383C11.5597 5.42175 9.30983 5.87248 7.78116 7.31061C5.1669 9.5146 5.00003 13.8424 7.1789 16.3959C8.68647 18.1167 11.1492 18.8329 13.378 18.4528C15.4609 18.1797 17.0874 16.7282 18.4933 15.29C19.6921 16.5334 20.8985 17.7691 22.0934 19.0162C20.3615 20.7064 18.4358 22.347 16.0651 23.046C13.7711 23.7221 11.2892 23.7661 8.95883 23.2504C5.81327 22.559 3.05707 20.3894 1.61472 17.5284C0.260597 14.7515 0.0611227 11.4608 0.914643 8.5081C1.76241 5.58791 3.98348 3.18147 6.70899 1.86557Z" fill="black"/>
<path d="M50.415 0.973521C52.2122 0.962062 54.0075 0.971611 55.8027 0.967791C58.7258 8.41055 61.7755 15.8037 64.7004 23.2445C62.7632 23.2331 60.8279 23.2541 58.8927 23.2369C57.0034 18.4889 55.0624 13.7639 53.1616 9.0198C52.778 9.68635 52.5517 10.4255 52.2486 11.1283C50.6202 15.1677 48.9784 19.1994 47.3596 23.2426C45.4243 23.2445 43.489 23.2388 41.5557 23.2464C44.4116 16.0271 47.327 8.82882 50.2155 1.62097C50.2884 1.40706 50.3555 1.19125 50.415 0.973521Z" fill="black"/>
<path d="M61.3994 6.29065C61.3764 4.51638 61.3917 2.7402 61.3917 0.964025C67.2302 0.969754 73.0686 0.975484 78.909 0.960205C78.909 2.73638 78.9129 4.51256 78.9052 6.29065C76.8855 6.27728 74.8658 6.28683 72.8462 6.28492C72.8078 11.9018 72.8557 17.5207 72.8231 23.1395C71.0394 23.1395 69.2556 23.1357 67.4738 23.1433C67.4642 17.5245 67.4642 11.9076 67.4738 6.28874C65.4483 6.2811 63.4248 6.27728 61.3994 6.29065Z" fill="black"/>
<path d="M24.1516 0.944781C29.4856 0.95242 34.8196 0.95815 40.1537 0.942871C40.2055 2.6312 40.169 4.32143 40.1786 6.01167C34.8254 6.01549 29.4703 6.01358 24.1171 6.01358C24.1305 4.32334 24.0768 2.63311 24.1516 0.944781Z" fill="black"/>
<path d="M24.0996 9.51254C29.4566 9.47816 34.8137 9.5049 40.1707 9.50108C40.1746 11.176 40.1937 12.8529 40.1669 14.5279C34.8329 14.5068 29.4969 14.5011 24.1629 14.5317C24.0536 12.8605 24.1572 11.1856 24.0996 9.51254Z" fill="black"/>
<path d="M24.1187 18.2082C29.4719 18.1566 34.827 18.1796 40.1802 18.1967C40.1591 19.8889 40.2224 21.5829 40.1438 23.2751C34.8117 23.2579 29.4796 23.2522 24.1475 23.277C24.0803 21.5887 24.1264 19.8984 24.1187 18.2082Z" fill="black"/>
</svg>
